<svg width="38" height="38" viewBox="0 0 38 38" fill="none" xmlns="http://www.w3.org/2000/svg">
<path d="M19 0.76001C11.8712 0.76001 6.07999 6.55123 6.07999 13.68C6.07999 16.6705 7.09722 19.4282 8.79937 21.6155C8.80004 21.6163 8.80016 21.6176 8.80085 21.6185C9.79019 22.9521 11.8106 25.4186 13.6681 28.1408C15.5298 30.869 17.1833 33.878 17.4399 35.9145C17.4404 35.9179 17.4409 35.9214 17.4414 35.9249C17.5466 36.6771 18.199 37.24 18.954 37.24C19.7091 37.24 20.378 36.6725 20.4695 35.91C20.7207 33.9298 22.302 31.0406 24.1137 28.3887C25.9265 25.7351 27.9326 23.2879 28.9943 21.8723C28.9866 21.8826 29.0236 21.8321 29.0418 21.8099C30.8383 19.591 31.92 16.7574 31.92 13.68C31.92 6.55124 26.1288 0.76001 19 0.76001ZM19 2.28001C19.4629 2.28001 19.9024 2.36325 20.3508 2.41657L15.0916 8.84243L11.0155 5.54712C13.0709 3.52936 15.884 2.28001 19 2.28001ZM22.0474 2.74165C25.1399 3.59999 27.6761 5.7056 29.1101 8.50696L25.0399 13.4826C24.9292 10.2279 22.281 7.60002 19 7.60002C18.6058 7.60002 18.2617 7.75356 17.8882 7.82565L22.0474 2.74165ZM10.0329 6.70642L14.1298 10.0181L8.20413 17.2603C7.83077 16.1327 7.59999 14.937 7.59999 13.68C7.59999 11.0368 8.52997 8.63742 10.0329 6.70642ZM19 9.12001C21.5314 9.12001 23.56 11.1486 23.56 13.68C23.56 16.2114 21.5314 18.24 19 18.24C16.4686 18.24 14.44 16.2114 14.44 13.68C14.44 11.1486 16.4686 9.12001 19 9.12001ZM29.7721 10.0967C30.1479 11.2293 30.4 12.4194 30.4 13.68C30.4 16.4055 29.4451 18.9015 27.8558 20.8614C27.841 20.8801 27.8271 20.8994 27.8142 20.9193C27.8639 20.8448 27.8378 20.8818 27.7786 20.9609C26.7655 22.3116 24.7197 24.8054 22.8579 27.5307C20.9961 30.256 19.2803 33.1828 18.9599 35.7245C18.9599 35.7259 18.9599 35.7274 18.9599 35.7289C18.9602 35.7264 18.974 35.72 18.954 35.72C18.9489 35.72 18.9477 35.7218 18.9465 35.7141C18.6359 33.2771 17.0238 30.4773 15.2594 27.8365L29.7721 10.0967ZM12.9556 13.8552C13.0542 17.1207 15.7111 19.76 19 19.76C19.3836 19.76 19.7179 19.6087 20.0821 19.5403L14.3628 26.5317C12.653 24.1179 10.8343 21.8075 10.0121 20.6981C10.0082 20.6931 10.0042 20.6882 10.0002 20.6833C9.55145 20.1069 9.2808 19.4107 8.94782 18.7536L12.9556 13.8552Z" fill="black"/>
</svg>
