<svg width="50" height="50" viewBox="0 0 50 50" fill="none" xmlns="http://www.w3.org/2000/svg">
<path d="M25 16.4062C23.3003 16.4062 21.6388 16.9103 20.2256 17.8546C18.8123 18.7989 17.7109 20.141 17.0604 21.7113C16.41 23.2816 16.2398 25.0095 16.5714 26.6766C16.903 28.3436 17.7214 29.8748 18.9233 31.0767C20.1252 32.2786 21.6564 33.097 23.3234 33.4286C24.9905 33.7602 26.7184 33.59 28.2887 32.9396C29.859 32.2891 31.2011 31.1877 32.1454 29.7744C33.0897 28.3612 33.5938 26.6997 33.5938 25C33.5912 22.7216 32.6849 20.5372 31.0739 18.9261C29.4628 17.3151 27.2784 16.4088 25 16.4062ZM25 32.0312C23.6094 32.0312 22.2499 31.6189 21.0936 30.8463C19.9374 30.0737 19.0361 28.9755 18.504 27.6907C17.9718 26.4059 17.8326 24.9922 18.1039 23.6283C18.3752 22.2643 19.0448 21.0115 20.0282 20.0282C21.0115 19.0448 22.2643 18.3752 23.6283 18.1039C24.9922 17.8326 26.4059 17.9718 27.6907 18.504C28.9755 19.0361 30.0737 19.9374 30.8463 21.0936C31.6189 22.2499 32.0312 23.6094 32.0312 25C32.0292 26.8642 31.2877 28.6514 29.9695 29.9695C28.6514 31.2877 26.8642 32.0292 25 32.0312ZM33.5938 6.25H16.4062C13.7136 6.25305 11.1321 7.32406 9.22807 9.22807C7.32406 11.1321 6.25305 13.7136 6.25 16.4062V33.5938C6.25305 36.2864 7.32406 38.8679 9.22807 40.7719C11.1321 42.6759 13.7136 43.7469 16.4062 43.75H33.5938C36.2864 43.7469 38.8679 42.6759 40.7719 40.7719C42.6759 38.8679 43.7469 36.2864 43.75 33.5938V16.4062C43.7469 13.7136 42.6759 11.1321 40.7719 9.22807C38.8679 7.32406 36.2864 6.25305 33.5938 6.25ZM42.1875 33.5938C42.1849 35.8722 41.2787 38.0565 39.6676 39.6676C38.0565 41.2787 35.8722 42.1849 33.5938 42.1875H16.4062C14.1278 42.1849 11.9435 41.2787 10.3324 39.6676C8.72131 38.0565 7.81507 35.8722 7.8125 33.5938V16.4062C7.81507 14.1278 8.72131 11.9435 10.3324 10.3324C11.9435 8.72131 14.1278 7.81507 16.4062 7.8125H33.5938C35.8722 7.81507 38.0565 8.72131 39.6676 10.3324C41.2787 11.9435 42.1849 14.1278 42.1875 16.4062V33.5938ZM36.7188 14.8438C36.7188 15.1528 36.6271 15.4549 36.4554 15.7118C36.2837 15.9688 36.0397 16.1691 35.7542 16.2873C35.4687 16.4056 35.1545 16.4365 34.8514 16.3762C34.5483 16.3159 34.2699 16.1671 34.0514 15.9486C33.8329 15.7301 33.6841 15.4517 33.6238 15.1486C33.5635 14.8455 33.5944 14.5313 33.7127 14.2458C33.8309 13.9603 34.0312 13.7163 34.2882 13.5446C34.5451 13.3729 34.8472 13.2812 35.1562 13.2812C35.5705 13.2817 35.9677 13.4465 36.2606 13.7394C36.5535 14.0323 36.7183 14.4295 36.7188 14.8438Z" fill="black"/>
</svg>
