<svg width="42" height="26" viewBox="0 0 42 26" fill="none" xmlns="http://www.w3.org/2000/svg">
<path d="M10.5 6.8125H1.3125C1.3125 6.8125 2.94 7.83625 3.80625 9.7525C2.2575 11.38 1.3125 13.585 1.3125 16C1.3125 21.0662 5.43375 25.1875 10.5 25.1875C15.5662 25.1875 19.6875 21.0662 19.6875 16C19.6875 10.9338 15.5662 6.8125 10.5 6.8125Z" stroke="black" stroke-width="1.5" stroke-miterlimit="10" stroke-linecap="round" stroke-linejoin="round"/>
<path d="M18.0364 21.2501L21.1076 25.1876L23.9636 21.2501M7.875 6.8126C11.4616 3.53752 16.1431 1.72168 21 1.72168C25.8569 1.72168 30.5384 3.53752 34.125 6.8126" stroke="black" stroke-width="1.5" stroke-miterlimit="10" stroke-linecap="round" stroke-linejoin="round"/>
<path d="M10.5 19.9375C12.6746 19.9375 14.4375 18.1746 14.4375 16C14.4375 13.8254 12.6746 12.0625 10.5 12.0625C8.32538 12.0625 6.5625 13.8254 6.5625 16C6.5625 18.1746 8.32538 19.9375 10.5 19.9375Z" stroke="black" stroke-width="1.5" stroke-miterlimit="10" stroke-linecap="round" stroke-linejoin="round"/>
<path d="M22.3125 16C22.3125 21.0662 26.4338 25.1875 31.5 25.1875C36.5662 25.1875 40.6875 21.0662 40.6875 16C40.6875 13.585 39.7425 11.38 38.1938 9.7525C39.06 7.83625 40.6875 6.8125 40.6875 6.8125H31.5C26.4338 6.8125 22.3125 10.9338 22.3125 16Z" stroke="black" stroke-width="1.5" stroke-miterlimit="10" stroke-linecap="round" stroke-linejoin="round"/>
<path d="M31.5 19.9375C33.6746 19.9375 35.4375 18.1746 35.4375 16C35.4375 13.8254 33.6746 12.0625 31.5 12.0625C29.3254 12.0625 27.5625 13.8254 27.5625 16C27.5625 18.1746 29.3254 19.9375 31.5 19.9375Z" stroke="black" stroke-width="1.5" stroke-miterlimit="10" stroke-linecap="round" stroke-linejoin="round"/>
</svg>
